# xmcd CD database file
#
# Track frame offsets:
#	150
#	31170
#	57570
#	78090
#	106042
#	130007
#	161747
#	188155
#	217356
#	254039
#	273509
#	301101
#	326046
#
# Disc length: 4628 seconds
#
# Revision: 1
# Processed by: cddbd v1.5.2PL0 Copyright (c) Steve Scherf et al.
# Submitted via: CDex 1.99.1
#
DISCID=b812120d
DTITLE=Oliver Nelson - The Complete Prestige Collection 4/4
DYEAR=2017
DGENRE=Jazz
TTITLE0=Main Stem
TTITLE1=J and B
TTITLE2=Ho!
TTITLE3=Latino
TTITLE4=Tipsy
TTITLE5=Tangerine
TTITLE6=Message
TTITLE7=Jungleaire
TTITLE8=Emancipation Blues
TTITLE9=There's A Yearnin'
TTITLE10=Going Up North
TTITLE11=Disillusioned
TTITLE12=Freedom Dance
EXTD=YEAR: 2017
EXTT0=
EXTT1=
EXTT2=
EXTT3=
EXTT4=
EXTT5=
EXTT6=
EXTT7=
EXTT8=
EXTT9=
EXTT10=
EXTT11=
EXTT12=
PLAYORDER=
